<?xml version="1.0" encoding="utf-8"?>
<!-- Generator: Adobe Illustrator 23.0.4, SVG Export Plug-In . SVG Version: 6.00 Build 0)  -->
<svg version="1.1" id="Layer_1" xmlns="http://www.w3.org/2000/svg" xmlns:xlink="http://www.w3.org/1999/xlink" x="0px" y="0px"
	 viewBox="0 0 280.1 359.7" style="enable-background:new 0 0 280.1 359.7;" xml:space="preserve">
<style type="text/css">
	.st0{fill:#FFFFFF;}
	.st1{fill:#3DD1A0;}
	.st2{fill:none;}
	.st3{fill:#E2C675;}
</style>
<path d="M227.5,26.9H52.6v279.9l86.3,42.3l88.6-42.3V26.9z"/>
<circle class="st0" cx="140" cy="156.8" r="93.3"/>
<path d="M140,253.2c-53.2,0-96.4-43.3-96.4-96.4S86.9,60.4,140,60.4c53.2,0,96.4,43.3,96.4,96.4S193.2,253.2,140,253.2L140,253.2z
	 M140,66.6c-49.7,0-90.2,40.5-90.2,90.2S90.3,247,140,247s90.2-40.5,90.2-90.2C230.3,107.1,189.8,66.6,140,66.6L140,66.6z"/>
<circle class="st1" cx="140" cy="156.8" r="57.5"/>
<path d="M140,217.7c-33.6,0-60.8-27.3-60.8-60.8S106.5,96,140,96c33.6,0,60.8,27.3,60.8,60.8S173.6,217.7,140,217.7L140,217.7z
	 M140,102.6c-29.9,0-54.2,24.3-54.2,54.2S110.2,211,140,211s54.2-24.3,54.2-54.2S169.9,102.6,140,102.6z"/>
<circle cx="140" cy="156.8" r="35.5"/>
<path d="M140,195.4c-21.3,0-38.6-17.3-38.6-38.6s17.3-38.6,38.6-38.6s38.6,17.3,38.6,38.6C178.7,178.1,161.3,195.4,140,195.4z
	 M140,124.4c-17.9,0-32.4,14.5-32.4,32.4s14.5,32.4,32.4,32.4s32.4-14.5,32.4-32.4S157.9,124.4,140,124.4z"/>
<path class="st2" d="M140,114.8v-9.5"/>
<path d="M140,114.8c-0.9-0.8-1.4-1.6-1.7-2.4s-0.5-1.6-0.5-2.4s0.1-1.6,0.5-2.4c0.3-0.8,0.8-1.6,1.7-2.4c0.9,0.8,1.4,1.6,1.7,2.4
	s0.5,1.6,0.5,2.4s-0.1,1.6-0.5,2.4C141.4,113.3,140.9,114.1,140,114.8z"/>
<path class="st2" d="M169.4,127l6.7-6.7"/>
<path d="M169.4,127c-0.1-1.2,0.2-2.1,0.5-2.9s0.8-1.5,1.4-2c0.6-0.6,1.2-1,2-1.4c0.8-0.3,1.7-0.6,2.9-0.5c0.1,1.2-0.2,2.1-0.5,2.9
	s-0.8,1.5-1.4,2c-0.6,0.6-1.2,1-2,1.4S170.6,127.1,169.4,127z"/>
<path class="st2" d="M181.5,156.4h9.5"/>
<path d="M181.5,156.4c0.8-0.9,1.6-1.4,2.4-1.7c0.8-0.3,1.6-0.5,2.4-0.5c0.8,0,1.6,0.1,2.4,0.5c0.8,0.3,1.6,0.8,2.4,1.7
	c-0.8,0.9-1.6,1.4-2.4,1.7c-0.8,0.3-1.6,0.5-2.4,0.5c-0.8,0-1.6-0.1-2.4-0.5C183.1,157.8,182.3,157.3,181.5,156.4z"/>
<path class="st2" d="M169.3,185.7l6.7,6.8"/>
<path d="M169.3,185.7c1.2-0.1,2.1,0.2,2.9,0.5c0.8,0.3,1.5,0.8,2,1.4c0.6,0.6,1,1.2,1.4,2c0.3,0.8,0.6,1.7,0.5,2.9
	c-1.2,0.1-2.1-0.2-2.9-0.5c-0.8-0.3-1.5-0.8-2-1.4c-0.6-0.6-1-1.2-1.4-2S169.2,186.9,169.3,185.7z"/>
<path class="st2" d="M139.9,197.8v9.6"/>
<path d="M139.9,197.8c0.9,0.8,1.4,1.6,1.7,2.4c0.3,0.8,0.5,1.6,0.5,2.4c0,0.8-0.1,1.6-0.5,2.4c-0.3,0.8-0.8,1.6-1.7,2.4
	c-0.9-0.8-1.4-1.6-1.7-2.4c-0.3-0.8-0.5-1.6-0.5-2.4c0-0.8,0.1-1.6,0.5-2.4C138.6,199.4,139,198.6,139.9,197.8z"/>
<path class="st2" d="M110.6,185.6l-6.7,6.8"/>
<path d="M110.6,185.6c0.1,1.2-0.2,2.1-0.5,2.9c-0.3,0.8-0.8,1.5-1.4,2c-0.6,0.6-1.2,1-2,1.4c-0.8,0.3-1.7,0.6-2.9,0.5
	c-0.1-1.2,0.2-2.1,0.5-2.9c0.3-0.8,0.8-1.5,1.4-2c0.6-0.6,1.2-1,2-1.4C108.5,185.8,109.4,185.5,110.6,185.6z"/>
<path class="st2" d="M98.5,156.3H89"/>
<path d="M98.5,156.3c-0.8,0.9-1.6,1.4-2.4,1.7s-1.6,0.5-2.4,0.5s-1.6-0.1-2.4-0.5c-0.8-0.3-1.6-0.8-2.4-1.7c0.8-0.9,1.6-1.4,2.4-1.7
	s1.6-0.5,2.4-0.5s1.6,0.1,2.4,0.5C96.9,154.9,97.7,155.4,98.5,156.3z"/>
<path class="st2" d="M110.7,127l-6.7-6.8"/>
<path d="M110.7,127c-1.2,0.1-2.1-0.2-2.9-0.5s-1.5-0.8-2-1.4c-0.6-0.6-1-1.2-1.4-2c-0.3-0.8-0.6-1.7-0.5-2.9
	c1.2-0.1,2.1,0.2,2.9,0.5s1.5,0.8,2,1.4c0.6,0.6,1,1.2,1.4,2C110.5,124.9,110.8,125.8,110.7,127z"/>
<path class="st2" d="M178.8,141.6l8.9-3.4"/>
<path d="M178.8,141.6c0.4-1.1,1-1.8,1.6-2.4c0.6-0.6,1.3-1,2.1-1.3c0.7-0.3,1.5-0.4,2.4-0.4s1.8,0.2,2.8,0.7c-0.4,1.1-1,1.9-1.6,2.5
	s-1.3,1-2.1,1.3c-0.7,0.3-1.5,0.4-2.4,0.4C180.7,142.3,179.8,142.1,178.8,141.6z"/>
<path class="st2" d="M177.8,173.3l8.8,3.9"/>
<path d="M177.8,173.3c1.1-0.5,2-0.6,2.9-0.6s1.6,0.2,2.4,0.5c0.7,0.3,1.4,0.8,2,1.4c0.6,0.6,1.1,1.4,1.5,2.5c-1.1,0.5-2,0.6-2.9,0.6
	s-1.6-0.2-2.4-0.5c-0.7-0.3-1.4-0.8-2-1.4C178.7,175.2,178.2,174.5,177.8,173.3z"/>
<path class="st2" d="M154.8,195.1l3.4,8.9"/>
<path d="M154.8,195.1c1.1,0.4,1.8,1,2.4,1.6c0.6,0.6,1,1.3,1.3,2.1c0.3,0.7,0.4,1.5,0.4,2.4s-0.2,1.8-0.7,2.8
	c-1.1-0.4-1.9-1-2.5-1.6s-1-1.3-1.3-2.1c-0.3-0.7-0.4-1.5-0.4-2.4C154,197.1,154.2,196.2,154.8,195.1z"/>
<g>
	<path class="st2" d="M123,194.2l-3.9,8.7"/>
	<path d="M123,194.2c0.5,1.1,0.6,2,0.6,2.9s-0.2,1.6-0.5,2.4c-0.3,0.7-0.8,1.4-1.4,2s-1.4,1.1-2.5,1.5c-0.5-1.1-0.6-2-0.6-2.9
		s0.2-1.6,0.5-2.4c0.3-0.7,0.8-1.4,1.4-2S121.9,194.5,123,194.2z"/>
</g>
<g>
	<path class="st2" d="M101.2,171.1l-8.9,3.4"/>
	<path d="M101.2,171.1c-0.4,1.1-1,1.8-1.6,2.4c-0.6,0.6-1.3,1-2.1,1.3c-0.7,0.3-1.5,0.4-2.4,0.4s-1.8-0.2-2.8-0.7
		c0.4-1.1,1-1.9,1.6-2.5s1.3-1,2.1-1.3c0.7-0.3,1.5-0.4,2.4-0.4C99.2,170.4,100.2,170.5,101.2,171.1z"/>
</g>
<g>
	<path class="st2" d="M102.1,139.4l-8.7-3.9"/>
	<path d="M102.1,139.4c-1.1,0.5-2,0.6-2.9,0.6s-1.6-0.2-2.4-0.5c-0.7-0.3-1.4-0.8-2-1.4c-0.6-0.6-1.1-1.4-1.5-2.5
		c1.1-0.5,2-0.6,2.9-0.6s1.6,0.2,2.4,0.5c0.7,0.3,1.4,0.8,2,1.4C101.2,137.5,101.8,138.2,102.1,139.4z"/>
</g>
<g>
	<path class="st2" d="M125.2,117.6l-3.4-8.9"/>
	<path d="M125.2,117.6c-1.1-0.4-1.8-1-2.4-1.6s-1-1.3-1.3-2.1c-0.3-0.7-0.4-1.5-0.4-2.4s0.2-1.8,0.7-2.8c1.1,0.4,1.9,1,2.5,1.6
		s1,1.3,1.3,2.1c0.3,0.7,0.4,1.5,0.4,2.4C125.9,115.6,125.8,116.5,125.2,117.6z"/>
</g>
<g>
	<path class="st2" d="M157,118.5l3.9-8.7"/>
	<path d="M157,118.5c-0.5-1.1-0.6-2-0.6-2.9s0.2-1.6,0.5-2.4c0.3-0.7,0.8-1.4,1.4-2c0.6-0.6,1.4-1.1,2.5-1.5c0.5,1.1,0.6,2,0.6,2.9
		s-0.2,1.6-0.5,2.4c-0.3,0.7-0.8,1.4-1.4,2C158.9,117.6,158.1,118.1,157,118.5z"/>
</g>
<g>
	<path d="M147.1,71.1c-0.6,0.9-1.2,1.7-1.8,2.5s-1.2,1.6-1.9,2.4c-1.3,1.6-2.6,3.1-4,4.6l-0.9-2.2c1.3-0.1,2.5-0.1,3.8-0.1h3.8
		l3.4,0.1l-2.4,2.3c-1.7,1.6-3.4,3.2-5.2,4.7c-0.9,0.7-1.8,1.5-2.8,2.2c-0.9,0.7-1.9,1.4-2.9,2.1c0.6-1,1.3-2,2.1-2.9
		c0.7-0.9,1.4-1.9,2.2-2.8c1.5-1.8,3.1-3.5,4.7-5.2l1,2.4h-3.8c-1.3,0-2.5,0-3.8-0.1l-3.2-0.1l2.3-2.1c1.5-1.4,3-2.7,4.6-4
		c0.8-0.6,1.6-1.3,2.4-1.9C145.4,72.3,146.2,71.7,147.1,71.1L147.1,71.1z"/>
</g>
<g>
	<path d="M201.4,95.8c-0.7,0.8-1.4,1.5-2.2,2.2c-0.7,0.7-1.5,1.4-2.3,2c-1.5,1.3-3.1,2.6-4.7,3.8l-0.5-2.4c1.2,0.2,2.5,0.4,3.7,0.6
		s2.5,0.4,3.7,0.7l3.3,0.7l-2.7,1.8c-1.9,1.3-3.9,2.5-6,3.7c-1,0.6-2,1.1-3.1,1.7c-1,0.5-2.1,1-3.2,1.5c0.8-0.9,1.7-1.7,2.5-2.5
		c0.9-0.8,1.8-1.6,2.6-2.3c1.8-1.5,3.6-2.9,5.5-4.3l0.5,2.5c-1.2-0.2-2.5-0.4-3.7-0.6s-2.5-0.5-3.7-0.8l-3.1-0.7l2.6-1.7
		c1.7-1.1,3.4-2.1,5.2-3.1c0.9-0.5,1.8-1,2.7-1.4C199.5,96.7,200.4,96.2,201.4,95.8L201.4,95.8z"/>
</g>
<g>
	<path d="M225.9,158.3c-1-0.1-2-0.3-3-0.5l-3-0.6c-2-0.4-3.9-0.9-5.9-1.5l1.6-1.8l1.8,3.3c0.6,1.1,1.1,2.2,1.7,3.4l1.4,3l-3.1-1.1
		c-2.2-0.8-4.4-1.6-6.5-2.6c-1.1-0.5-2.1-0.9-3.2-1.5c-1.1-0.5-2.1-1.1-3.1-1.7c1.2,0.1,2.4,0.3,3.5,0.5c1.2,0.2,2.3,0.5,3.4,0.7
		c2.3,0.5,4.5,1.1,6.8,1.8l-1.7,1.9c-0.6-1.1-1.2-2.2-1.7-3.3c-0.6-1.1-1.1-2.3-1.6-3.4L212,152l2.9,1.1c1.9,0.7,3.8,1.5,5.6,2.3
		c0.9,0.4,1.8,0.9,2.8,1.3C224.1,157.3,225.1,157.7,225.9,158.3L225.9,158.3z"/>
</g>
<g>
	<path d="M199.3,218.1c-0.7-0.8-1.3-1.6-1.9-2.4c-0.6-0.8-1.2-1.7-1.8-2.5c-1.1-1.7-2.2-3.4-3.2-5.1l2.4-0.2c-0.3,1.2-0.6,2.4-1,3.6
		c-0.3,1.2-0.7,2.4-1.1,3.6l-1,3.2l-1.5-2.9c-1.1-2.1-2.1-4.2-3-6.4c-0.5-1.1-0.9-2.2-1.3-3.3c-0.4-1.1-0.8-2.2-1.1-3.4
		c0.8,0.9,1.5,1.8,2.2,2.8c0.7,0.9,1.4,1.9,2,2.9c1.3,2,2.5,4,3.6,6l-2.5,0.3c0.3-1.2,0.7-2.4,1.1-3.6l1.2-3.6l1.1-3l1.4,2.8
		c0.9,1.8,1.7,3.7,2.5,5.5c0.4,0.9,0.8,1.9,1.1,2.8C198.7,216.1,199,217.1,199.3,218.1L199.3,218.1z"/>
</g>
<g>
	<path d="M133,240.6c0.6-0.9,1.2-1.7,1.8-2.5s1.2-1.6,1.9-2.4c1.3-1.6,2.6-3.1,4-4.6l0.9,2.2c-1.3,0.1-2.5,0.1-3.8,0.1H134l-3.4-0.1
		l2.4-2.3c1.7-1.6,3.4-3.2,5.2-4.7c0.9-0.7,1.8-1.5,2.8-2.2c0.9-0.7,1.9-1.4,2.9-2.1c-0.6,1-1.3,2-2.1,2.9c-0.7,0.9-1.4,1.9-2.2,2.8
		c-1.5,1.8-3.1,3.5-4.7,5.2l-1-2.4h3.8c1.3,0,2.5,0,3.8,0.1l3.2,0.1l-2.3,2.1c-1.5,1.4-3,2.7-4.6,4c-0.8,0.6-1.6,1.3-2.4,1.9
		C134.7,239.5,133.9,240.1,133,240.6z"/>
</g>
<g>
	<path d="M76.6,213.7c0.9-0.5,1.8-1,2.7-1.4c0.9-0.4,1.8-0.9,2.8-1.3c1.9-0.8,3.7-1.6,5.6-2.3l-0.2,2.4c-1.1-0.5-2.3-1.1-3.4-1.6
		c-1.1-0.6-2.2-1.1-3.3-1.7l-3-1.6l3.2-0.9c2.2-0.7,4.5-1.3,6.8-1.8c1.1-0.3,2.3-0.5,3.5-0.7s2.3-0.4,3.5-0.5
		c-1,0.6-2.1,1.1-3.1,1.6c-1.1,0.5-2.1,1-3.2,1.5c-2.2,0.9-4.3,1.8-6.5,2.5l0.2-2.5c1.1,0.5,2.3,1.1,3.4,1.7l3.3,1.8l2.8,1.6l-3,0.8
		c-1.9,0.5-3.9,1-5.9,1.5l-3,0.6C78.6,213.5,77.6,213.6,76.6,213.7L76.6,213.7z"/>
</g>
<g>
	<path d="M54.2,154.7c1,0,2.1,0,3.1,0.1s2,0.1,3,0.2c2,0.2,4,0.5,6,0.8l-1.4,2c-0.7-1-1.5-2-2.2-3.1c-0.7-1-1.4-2.1-2.1-3.1
		l-1.8-2.8l3.2,0.7c2.3,0.5,4.5,1.1,6.8,1.8c1.1,0.3,2.2,0.7,3.4,1.1c1.1,0.4,2.2,0.8,3.3,1.3c-1.2,0-2.4,0-3.6-0.1
		s-2.3-0.2-3.5-0.3c-2.3-0.3-4.6-0.6-6.9-1l1.4-2.1c0.7,1,1.4,2.1,2.1,3.1s1.4,2.1,2,3.2l1.7,2.8l-3-0.7c-2-0.5-3.9-1-5.9-1.6
		c-1-0.3-1.9-0.6-2.9-1C56.1,155.5,55.2,155.1,54.2,154.7L54.2,154.7z"/>
</g>
<g>
	<path d="M80.5,94c0.7,0.8,1.4,1.5,2,2.3s1.3,1.6,1.9,2.4c1.2,1.6,2.4,3.3,3.5,5l-2.4,0.4c0.3-1.2,0.5-2.5,0.8-3.7l0.9-3.6l0.9-3.2
		l1.6,2.9c1.2,2,2.2,4.1,3.3,6.2c0.5,1.1,1,2.1,1.5,3.2s0.9,2.2,1.3,3.3c-0.8-0.9-1.6-1.8-2.3-2.7c-0.7-0.9-1.4-1.9-2.1-2.8
		c-1.4-1.9-2.7-3.8-3.9-5.8l2.5-0.4c-0.3,1.2-0.6,2.4-0.9,3.7c-0.3,1.2-0.6,2.4-1,3.6l-0.9,3.1l-1.5-2.7c-1-1.8-1.9-3.6-2.7-5.4
		c-0.4-0.9-0.8-1.9-1.2-2.8C81.2,95.9,80.8,95,80.5,94z"/>
</g>
<g>
	<path class="st0" d="M69.1,54.6h-5.8c-0.4,0-1,0-1.7,0.1h-0.3v-0.5h0.2c1.1-0.1,1.4-0.4,1.4-1.3V42.5c0-0.9-0.4-1.2-1.4-1.3h-0.2
		v-0.5h0.3c0.8,0.1,1.3,0.1,1.7,0.1c0,0,5-0.1,5.8-0.1c4,0,7.2,2.7,7.2,6.7C76.3,51.3,73.2,54.6,69.1,54.6z M68.2,42.2
		c-0.4,0-2.7,0.1-2.7,0.1v9c0,1.3,0.4,1.7,2.7,1.7c2.9,0,5-2.6,5-5.5C73.2,44.3,71,42.2,68.2,42.2z M85.1,54.7
		c-0.8-0.1-1.3-0.1-1.7-0.1h-2c-0.4,0-1,0-1.7,0.1h-0.3v-0.5h0.2c1.1-0.1,1.4-0.4,1.4-1.3V42.5c0-0.9-0.4-1.2-1.4-1.3h-0.2v-0.5h0.3
		c0.8,0.1,1.3,0.1,1.7,0.1h2c0.4,0,1,0,1.7-0.1h0.3v0.5h-0.2c-1.1,0.1-1.4,0.4-1.4,1.3v10.4c0,0.9,0.4,1.2,1.4,1.3h0.2v0.5H85.1z
		 M82.6,39.6h-0.3c-0.3-0.8-0.8-1.3-1.6-1.6v-0.3c0.8-0.3,1.3-0.8,1.6-1.6h0.3c0.3,0.8,0.8,1.3,1.6,1.6V38
		C83.4,38.3,82.9,38.8,82.6,39.6z M93.6,54.9c-1.8,0-3.2-0.6-3.9-0.8l-0.6-3.5h0.6c0.5,2.2,1.6,3.2,3.4,3.2c1.6,0,2.7-0.8,2.7-2.2
		c0-1.3-0.9-2.2-3.3-3.4c-1.8-1-3.1-2.5-3.1-4.1c0-2.2,1.7-3.6,4.3-3.6c1.6,0,2.5,0.6,3.9,0.6L98,44h-0.4c-0.8-2-2.1-2.3-3.3-2.3
		c-1.3,0-2.1,0.8-2.1,1.9c0,1,1.3,1.8,2.7,2.6c2.4,1.3,4,2.6,4,4.9C98.8,53,96.6,54.9,93.6,54.9z M115.1,53.8
		c-0.8,0.6-3.3,1.1-4.9,1.1c-4.4,0-8-2.8-8-7c0-4,3.4-7.5,8-7.5c2.9,0,4,1.3,4.8,0.8l0.2,3.3h-0.4c-0.4-1.9-2.1-2.6-4.2-2.6
		c-3,0-5.1,2.8-5,6c0.2,3.4,2.6,5.6,5.5,5.6c2.1,0,3.7-0.6,3.9-3.1h0.5L115.1,53.8z M124.5,54.7c-0.8-0.1-1.3-0.1-1.7-0.1h-2
		c-0.4,0-1,0-1.7,0.1h-0.3v-0.5h0.2c1.1-0.1,1.4-0.4,1.4-1.3V42.5c0-0.9-0.4-1.2-1.4-1.3h-0.2v-0.5h0.3c0.8,0.1,1.3,0.1,1.7,0.1h2
		c0.4,0,1,0,1.7-0.1h0.3v0.5h-0.2c-1.1,0.1-1.4,0.4-1.4,1.3v10.4c0,0.9,0.4,1.2,1.4,1.3h0.2v0.5H124.5z M121.9,39.6h-0.3
		c-0.3-0.8-0.8-1.3-1.6-1.6v-0.3c0.8-0.3,1.3-0.8,1.6-1.6h0.3c0.3,0.8,0.8,1.3,1.6,1.6V38C122.8,38.3,122.3,38.8,121.9,39.6z
		 M134,48.7h-1.1V53c0,0.9,0.4,1.2,1.4,1.3h0.2v0.5h-0.3c-0.8-0.1-1.3-0.1-1.7-0.1h-2c-0.4,0-1,0-1.7,0.1h-0.3v-0.5h0.2
		c1.1-0.1,1.4-0.4,1.4-1.3V42.5c0-0.9-0.4-1.2-1.4-1.3h-0.2v-0.5h0.3c0.8,0.1,1.2,0.1,1.7,0.1c0.6,0,3.3-0.1,4.4-0.1
		c3.1,0,4.7,1.6,4.7,3.5C139.7,46.8,137,48.7,134,48.7L134,48.7z M134.1,41.9c-0.9,0-1.1,0.1-1.1,0.9v4.9h0.6c1.8,0,3.5-1.1,3.5-3
		C137.1,43.3,136.2,41.9,134.1,41.9z M152.7,54.7c0,0-4.4-0.2-6.2-0.2h-2c-0.4,0-1,0-1.7,0.1h-0.3v-0.5h0.2c1.1-0.1,1.4-0.4,1.4-1.3
		V42.5c0-0.9-0.4-1.2-1.4-1.3h-0.2v-0.5h0.3c0.8,0.1,1.3,0.1,1.7,0.1h2c0.4,0,1,0,1.7-0.1h0.3v0.5h-0.2c-1.1,0.1-1.4,0.4-1.4,1.3
		v9.1c0,1.2,0.1,1.3,1.1,1.3h2.1c1.6,0,1.9-0.1,3-1.5l0.7-0.9h0.6C153.2,52,152.9,53.9,152.7,54.7L152.7,54.7z M166.8,54.7
		c0,0-2.1-0.1-3.5-0.1h-4.6c-0.4,0-1,0-1.7,0.1h-0.3v-0.5h0.2c1.1-0.1,1.4-0.4,1.4-1.3V42.5c0-0.9-0.4-1.2-1.4-1.3h-0.2v-0.5h0.3
		c0.8,0.1,1.3,0.1,1.7,0.1h8l0.4,3.3h-0.5c-0.4-1.5-0.6-1.6-1.9-1.6H161v3.8h5v1.5h-5v3.9c0,1.2,0.1,1.3,1.1,1.3h2.2
		c1.6,0,2-0.4,2.9-1.8h0.6C167,52.5,167.1,53.9,166.8,54.7z M175.5,54.9c-1.8,0-3.2-0.6-3.9-0.8l-0.6-3.5h0.6
		c0.5,2.2,1.6,3.2,3.4,3.2c1.6,0,2.7-0.8,2.7-2.2c0-1.3-0.9-2.2-3.3-3.4c-1.8-1-3.1-2.5-3.1-4.1c0-2.2,1.7-3.6,4.3-3.6
		c1.6,0,2.5,0.6,3.9,0.6l0.4,2.9h-0.4c-0.8-2-2.1-2.3-3.3-2.3c-1.3,0-2.1,0.8-2.1,1.9c0,1,1.3,1.8,2.7,2.6c2.4,1.3,4,2.6,4,4.9
		C180.6,53,178.5,54.9,175.5,54.9L175.5,54.9z M198.2,54.9c-4.4,0-8-2.8-8-7c0-4,3.4-7.5,8-7.5c4.4,0,8,2.8,8,7
		C206.2,51.5,202.9,54.9,198.2,54.9z M197.7,42.1c-2.9,0-4.7,2.5-4.4,5.5c0.3,3.1,2.4,5.5,5.4,5.5c2.9,0,4.7-2.5,4.4-5.5
		C202.9,44.6,200.8,42.1,197.7,42.1z M219.1,44.1c-0.4-1.7-0.6-1.6-2.5-1.6h-3.1v3.8h5v1.5h-5v5.1c0,0.9,0.4,1.2,1.4,1.3h0.2v0.5
		h-0.3c-0.8-0.1-1.3-0.1-1.7-0.1h-2c-0.4,0-1,0-1.7,0.1h-0.3v-0.5h0.2c1.1-0.1,1.4-0.4,1.4-1.3V42.5c0-0.9-0.4-1.2-1.4-1.3h-0.2
		v-0.5h0.3c0.8,0.1,1.3,0.1,1.7,0.1h8l0.4,3.3H219.1L219.1,44.1z"/>
</g>
<g>
	<path class="st0" d="M68.2,275.4c-4.4,0-7.9-2.8-7.9-7c0-4,3.3-7.4,7.9-7.4c4.4,0,7.9,2.8,7.9,7C76.1,272,72.8,275.4,68.2,275.4z
		 M67.7,262.7c-2.8,0-4.6,2.5-4.3,5.5s2.3,5.5,5.4,5.5c2.8,0,4.6-2.5,4.3-5.5S70.7,262.7,67.7,262.7z M98.5,275.2
		c-0.8-0.1-1.3-0.1-1.7-0.1h-1.9c-0.4,0-0.9,0-1.7,0.1h-0.3v-0.5h0.2c1.1-0.1,1.4-0.4,1.4-1.3v-9.6l-4.3,1.3v8.3
		c0,0.9,0.4,1.2,1.4,1.3h0.2v0.5h-0.3c-0.8-0.1-1.3-0.1-1.7-0.1h-1.9c-0.4,0-0.9,0-1.7,0.1h-0.3v-0.5h0.2c1.1-0.1,1.4-0.4,1.4-1.3
		v-8.3l-4.3-1.3v9.6c0,0.9,0.4,1.2,1.4,1.3h0.2v0.5h-0.3c-0.8-0.1-1.3-0.1-1.7-0.1H81c-0.4,0-0.9,0-1.7,0.1H79v-0.5h0.2
		c1.1-0.1,1.4-0.4,1.4-1.3v-10.3c0-0.9-0.4-1.2-1.4-1.3H79v-0.5h0.3c0.8,0.1,2.5,0.1,4.3,0.7l5.3,1.6l5.3-1.6
		c1.8-0.6,3.5-0.6,4.3-0.7h0.3v0.5h-0.2c-1.1,0.1-1.4,0.4-1.4,1.3v10.3c0,0.9,0.4,1.2,1.4,1.3h0.2v0.5H98.5L98.5,275.2z
		 M116.6,275.2c-0.8-0.1-1.3-0.1-1.7-0.1H113c-0.4,0-0.9,0-1.7,0.1H111v-0.5h0.2c1.1-0.1,1.4-0.4,1.4-1.3v-10.1h-5.9v10.1
		c0,0.9,0.4,1.2,1.4,1.3h0.2v0.5H108c-0.8-0.1-1.3-0.1-1.7-0.1h-1.9c-0.4,0-0.9,0-1.7,0.1h-0.3v-0.5h0.2c1.1-0.1,1.4-0.4,1.4-1.3
		v-10.3c0-0.9-0.4-1.2-1.4-1.3h-0.2v-0.5h0.3c0.8,0.1,1.3,0.1,1.7,0.1h10.5c0.4,0,0.9,0,1.7-0.1h0.3v0.5h-0.2
		c-1.1,0.1-1.4,0.4-1.4,1.3v10.3c0,0.9,0.4,1.2,1.4,1.3h0.2v0.5C116.9,275.2,116.6,275.2,116.6,275.2z M125.6,275.2
		c-0.8-0.1-1.3-0.1-1.7-0.1H122c-0.4,0-0.9,0-1.7,0.1H120v-0.5h0.2c1.1-0.1,1.4-0.4,1.4-1.3v-10.3c0-0.9-0.4-1.2-1.4-1.3H120v-0.5
		h0.3c0.8,0.1,1.3,0.1,1.7,0.1h1.9c0.4,0,0.9,0,1.7-0.1h0.3v0.5h-0.2c-1.1,0.1-1.4,0.4-1.4,1.3v10.3c0,0.9,0.4,1.2,1.4,1.3h0.2v0.5
		H125.6z M123,260.2h-0.3c-0.3-0.8-0.8-1.3-1.6-1.6v-0.3c0.8-0.3,1.3-0.8,1.6-1.6h0.3c0.3,0.8,0.8,1.3,1.6,1.6v0.3
		C123.9,258.9,123.4,259.4,123,260.2z M135,269.2h-1.1v4.2c0,0.9,0.4,1.2,1.4,1.3h0.2v0.5h-0.3c-0.8-0.1-1.3-0.1-1.7-0.1h-1.9
		c-0.4,0-0.9,0-1.7,0.1h-0.3v-0.5h0.2c1.1-0.1,1.4-0.4,1.4-1.3v-10.3c0-0.9-0.4-1.2-1.4-1.3h-0.2v-0.5h0.3c0.8,0.1,1.1,0.1,1.7,0.1
		c0.6,0,3.2-0.1,4.3-0.1c3,0,4.6,1.5,4.6,3.4C140.6,267.4,138,269.2,135,269.2L135,269.2z M135.1,262.5c-0.9,0-1.1,0.1-1.1,0.9v4.9
		h0.6c1.8,0,3.5-1.1,3.5-3C138,263.9,137.2,262.5,135.1,262.5z M151.7,275.4c-4.4,0-7.9-2.8-7.9-7c0-4,3.3-7.4,7.9-7.4
		c4.4,0,7.9,2.8,7.9,7C159.7,272,156.3,275.4,151.7,275.4z M151.2,262.7c-2.8,0-4.6,2.5-4.3,5.5s2.3,5.5,5.4,5.5
		c2.8,0,4.6-2.5,4.3-5.5S154.2,262.7,151.2,262.7z M173.7,264.1h-0.4c0.2-0.7,0-1-0.9-1h-3v10.3c0,0.9,0.4,1.2,1.4,1.3h0.2v0.5h-0.3
		c-0.8-0.1-1.3-0.1-1.7-0.1h-2c-0.4,0-0.9,0-1.7,0.1H165v-0.5h0.2c1.1-0.1,1.4-0.4,1.4-1.3V263h-3.3c-0.8,0-1.2,0.1-1.8,1.4H161
		l1.2-4.1h0.4c-0.2,0.7,0,1,0.9,1h3v-2.2c0-0.9-0.4-1.2-1.4-1.3h-0.2v-0.5h0.3c0.8,0.1,1.3,0.1,1.7,0.1h1.9c0.4,0,0.9,0,1.7-0.1h0.3
		v0.5h-0.2c-1.1,0.1-1.4,0.4-1.4,1.3v2.2h3.3c0.8,0,1.2-0.1,1.8-1.4h0.4L173.7,264.1L173.7,264.1z M187.1,275.2c0,0-2.1-0.1-3.4-0.1
		h-4.5c-0.4,0-0.9,0-1.7,0.1h-0.3v-0.5h0.2c1.1-0.1,1.4-0.4,1.4-1.3v-10.3c0-0.9-0.4-1.2-1.4-1.3h-0.2v-0.5h0.3
		c0.8,0.1,1.3,0.1,1.7,0.1h7.9l0.4,3.3H187c-0.4-1.5-0.6-1.6-1.9-1.6h-3.7v3.8h5v1.5h-5v3.9c0,1.2,0.1,1.3,1.1,1.3h2.1
		c1.6,0,2-0.4,2.8-1.8h0.6C187.3,273,187.3,274.3,187.1,275.2L187.1,275.2z M205.6,275.2c-0.8-0.1-1.3-0.1-1.7-0.1H202
		c-0.4,0-0.9,0-1.7,0.1H200v-0.5h0.2c1.1-0.1,1.4-0.4,1.4-1.3v-10.1h-5.9v10.1c0,0.9,0.4,1.2,1.4,1.3h0.2v0.5H197
		c-0.8-0.1-1.3-0.1-1.7-0.1h-1.9c-0.4,0-0.9,0-1.7,0.1h-0.3v-0.5h0.2c1.1-0.1,1.4-0.4,1.4-1.3v-10.3c0-0.9-0.4-1.2-1.4-1.3h-0.2
		v-0.5h0.3c0.8,0.1,1.3,0.1,1.7,0.1h10.5c0.4,0,0.9,0,1.7-0.1h0.3v0.5h-0.2c-1.1,0.1-1.4,0.4-1.4,1.3v10.3c0,0.9,0.4,1.2,1.4,1.3
		h0.2v0.5H205.6L205.6,275.2z M219.9,264.1h-0.4c0.2-0.7,0-1-0.9-1h-3v10.3c0,0.9,0.4,1.2,1.4,1.3h0.2v0.5h-0.3
		c-0.8-0.1-1.3-0.1-1.7-0.1h-1.9c-0.4,0-0.9,0-1.7,0.1h-0.3v-0.5h0.2c1.1-0.1,1.4-0.4,1.4-1.3V263h-3.3c-0.8,0-1.2,0.1-1.8,1.4h-0.4
		l1.2-4.1h0.4c-0.2,0.7,0,1,0.9,1h3v-2.2c0-0.9-0.4-1.2-1.4-1.3h-0.2v-0.5h0.3c0.8,0.1,1.3,0.1,1.7,0.1h1.9c0.4,0,0.9,0,1.7-0.1h0.3
		v0.5H217c-1.1,0.1-1.4,0.4-1.4,1.3v2.2h3.3c0.8,0,1.2-0.1,1.8-1.4h0.4L219.9,264.1z M102.5,299.6c-0.8-0.1-1.3-0.1-1.7-0.1h-2
		c-0.4,0-1,0-1.7,0.1h-0.3v-0.5H97c1.1-0.1,1.5-0.4,1.5-1.3v-9.7l-4.4,1.3v8.3c0,0.9,0.4,1.2,1.5,1.3h0.2v0.5h-0.3
		c-0.8-0.1-1.3-0.1-1.7-0.1h-2c-0.4,0-1,0-1.7,0.1h-0.3V299H90c1.1-0.1,1.5-0.4,1.5-1.3v-8.3l-4.4-1.3v9.7c0,0.9,0.4,1.2,1.5,1.3
		h0.2v0.5h-0.3c-0.8-0.1-1.3-0.1-1.7-0.1h-2c-0.4,0-1,0-1.7,0.1h-0.3v-0.5H83c1.1-0.1,1.5-0.4,1.5-1.3v-10.4c0-0.9-0.4-1.2-1.5-1.3
		h-0.2v-0.5h0.3c0.8,0.1,2.5,0.1,4.3,0.7l5.4,1.7l5.4-1.7c1.8-0.6,3.5-0.6,4.3-0.7h0.3v0.5h-0.2c-1.1,0.1-1.5,0.4-1.5,1.3v10.4
		c0,0.9,0.4,1.2,1.5,1.3h0.2v0.5H102.5z M120.7,299.6c-0.8-0.1-1.3-0.1-1.7-0.1h-2.2c-0.4,0-1,0-1.7,0.1h-0.3v-0.5h0.2
		c1.1-0.1,1.5-0.4,1.5-1.3v-0.1v-2.3h-6.1v2.4c0,0.9,0.4,1.2,1.5,1.3h0.2v0.5h-0.3c-0.8-0.1-1.3-0.1-1.7-0.1h-2.2
		c-0.4,0-1,0-1.7,0.1h-0.3v-0.5h0.2c1.1-0.1,1.4-0.4,1.4-1.3v-0.2c0-5.4,1.9-10.2,5.9-12.6c4,2.4,5.9,7.2,5.9,12.6v0.2
		c0,0.9,0.4,1.2,1.5,1.3h0.2v0.5H120.7z M113.3,286.6c-1.6,1.2-2.6,3.1-3,7.7h5.9C116,289.6,114.9,287.8,113.3,286.6z M131.8,299.5
		H126c-0.4,0-1,0-1.7,0.1H124v-0.5h0.2c1.1-0.1,1.5-0.4,1.5-1.3v-10.4c0-0.9-0.4-1.2-1.5-1.3H124v-0.5h0.3c0.8,0.1,1.3,0.1,1.7,0.1
		c0,0,5-0.1,5.8-0.1c4,0,7.2,2.7,7.2,6.8C139,296.1,136,299.5,131.8,299.5L131.8,299.5z M130.9,287.1c-0.4,0-2.7,0.1-2.7,0.1v9
		c0,1.3,0.4,1.7,2.7,1.7c2.9,0,5-2.6,5-5.6C135.9,289.1,133.7,287.1,130.9,287.1z M156.3,299.6c-0.8-0.1-1.3-0.1-1.7-0.1h-2
		c-0.4,0-1,0-1.7,0.1h-0.3v-0.5h0.2c1.1-0.1,1.4-0.4,1.4-1.3v-10.2h-6v10.2c0,0.9,0.4,1.2,1.4,1.3h0.2v0.5h-0.3
		c-0.8-0.1-1.3-0.1-1.7-0.1h-2c-0.4,0-1,0-1.7,0.1h-0.3v-0.5h0.2c1.1-0.1,1.5-0.4,1.5-1.3v-10.4c0-0.9-0.4-1.2-1.5-1.3h-0.2v-0.5
		h0.3c0.8,0.1,1.3,0.1,1.7,0.1h10.6c0.4,0,1,0,1.7-0.1h0.3v0.5h-0.2c-1.1,0.1-1.5,0.4-1.5,1.3v10.4c0,0.9,0.4,1.2,1.5,1.3h0.2
		L156.3,299.6L156.3,299.6L156.3,299.6z M169.5,299.6c0,0-2.1-0.1-3.5-0.1h-4.6c-0.4,0-1,0-1.7,0.1h-0.3v-0.5h0.2
		c1.1-0.1,1.4-0.4,1.4-1.3v-10.4c0-0.9-0.4-1.2-1.4-1.3h-0.2v-0.5h0.3c0.8,0.1,1.3,0.1,1.7,0.1h8l0.4,3.3h-0.5
		c-0.4-1.5-0.6-1.6-1.9-1.6h-3.7v3.8h5v1.5h-5v3.9c0,1.2,0.1,1.3,1.1,1.3h2.2c1.7,0,2-0.4,2.9-1.8h0.6
		C169.7,297.4,169.7,298.7,169.5,299.6z M178.1,299.8c-1.8,0-3.2-0.6-3.9-0.8l-0.6-3.5h0.6c0.5,2.2,1.6,3.2,3.4,3.2
		c1.6,0,2.7-0.8,2.7-2.2c0-1.3-0.9-2.2-3.3-3.4c-1.8-1-3.1-2.5-3.1-4.1c0-2.3,1.7-3.6,4.3-3.6c1.7,0,2.5,0.6,3.9,0.6l0.4,2.9h-0.4
		c-0.8-2-2.1-2.3-3.3-2.3c-1.3,0-2.1,0.8-2.1,1.9c0,1,1.3,1.8,2.7,2.6c2.4,1.3,4,2.6,4,5C183.3,297.8,181.2,299.8,178.1,299.8
		L178.1,299.8z M191.1,299.8c-1.8,0-3.2-0.6-3.9-0.8l-0.6-3.5h0.6c0.5,2.2,1.6,3.2,3.4,3.2c1.6,0,2.7-0.8,2.7-2.2
		c0-1.3-0.9-2.2-3.3-3.4c-1.8-1-3.1-2.5-3.1-4.1c0-2.3,1.7-3.6,4.3-3.6c1.7,0,2.5,0.6,3.9,0.6l0.4,2.9h-0.4c-0.8-2-2.1-2.3-3.3-2.3
		c-1.3,0-2.1,0.8-2.1,1.9c0,1,1.3,1.8,2.7,2.6c2.4,1.3,4,2.6,4,5C196.2,297.8,194.1,299.8,191.1,299.8L191.1,299.8z"/>
</g>
<g>
	<path d="M52.1,10.6h175.5v9.3H52.1V10.6z"/>
</g>
<path class="st0" d="M123,125.5c-6.4,0-11.5,5.1-11.5,11.5s5.1,11.5,11.5,11.5c6.4,0,11.5-5.1,11.5-11.5S129.4,125.5,123,125.5z
	 M123,142.3c-4.4,0-7.9-3.5-7.9-7.9s3.5-7.9,7.9-7.9s7.9,3.5,7.9,7.9S127.4,142.3,123,142.3z"/>
<polygon class="st3" points="138,307.8 141.9,319.7 154.4,319.7 144.2,327 148.1,338.9 138,331.6 127.9,338.9 131.8,327 
	121.6,319.7 134.1,319.7 "/>
</svg>
