<svg  xmlns="http://www.w3.org/2000/svg" viewBox="0 0 280.1 359.7">
  <style>
    .st0{fill:#fff}.st2{fill:none}
  </style>
  <path d="M227.5 26.9H52.6v279.9l86.3 42.3 88.6-42.3z"/>
  <circle class="st0" cx="140" cy="156.8" r="93.3"/>
  <path d="M140 253.2c-53.2 0-96.4-43.3-96.4-96.4S86.9 60.4 140 60.4c53.2 0 96.4 43.3 96.4 96.4s-43.2 96.4-96.4 96.4zm0-186.6c-49.7 0-90.2 40.5-90.2 90.2S90.3 247 140 247s90.2-40.5 90.2-90.2c.1-49.7-40.4-90.2-90.2-90.2z"/>
  <circle cx="140" cy="156.8" r="57.5" fill="#3dd1a0"/>
  <path d="M140 217.7c-33.6 0-60.8-27.3-60.8-60.8S106.5 96 140 96c33.6 0 60.8 27.3 60.8 60.8s-27.2 60.9-60.8 60.9zm0-115.1c-29.9 0-54.2 24.3-54.2 54.2S110.2 211 140 211s54.2-24.3 54.2-54.2-24.3-54.2-54.2-54.2z"/>
  <circle cx="140" cy="156.8" r="35.5"/>
  <path d="M140 195.4c-21.3 0-38.6-17.3-38.6-38.6s17.3-38.6 38.6-38.6 38.6 17.3 38.6 38.6c.1 21.3-17.3 38.6-38.6 38.6zm0-71c-17.9 0-32.4 14.5-32.4 32.4s14.5 32.4 32.4 32.4 32.4-14.5 32.4-32.4-14.5-32.4-32.4-32.4z"/>
  <path class="st2" d="M140 114.8v-9.5"/>
  <path d="M140 114.8c-.9-.8-1.4-1.6-1.7-2.4s-.5-1.6-.5-2.4.1-1.6.5-2.4c.3-.8.8-1.6 1.7-2.4.9.8 1.4 1.6 1.7 2.4s.5 1.6.5 2.4-.1 1.6-.5 2.4c-.3.9-.8 1.7-1.7 2.4z"/>
  <path class="st2" d="M169.4 127l6.7-6.7"/>
  <path d="M169.4 127c-.1-1.2.2-2.1.5-2.9s.8-1.5 1.4-2c.6-.6 1.2-1 2-1.4.8-.3 1.7-.6 2.9-.5.1 1.2-.2 2.1-.5 2.9s-.8 1.5-1.4 2c-.6.6-1.2 1-2 1.4-.8.4-1.7.6-2.9.5z"/>
  <path class="st2" d="M181.5 156.4h9.5"/>
  <path d="M181.5 156.4c.8-.9 1.6-1.4 2.4-1.7.8-.3 1.6-.5 2.4-.5.8 0 1.6.1 2.4.5.8.3 1.6.8 2.4 1.7-.8.9-1.6 1.4-2.4 1.7-.8.3-1.6.5-2.4.5-.8 0-1.6-.1-2.4-.5-.8-.3-1.6-.8-2.4-1.7z"/>
  <path class="st2" d="M169.3 185.7l6.7 6.8"/>
  <path d="M169.3 185.7c1.2-.1 2.1.2 2.9.5.8.3 1.5.8 2 1.4.6.6 1 1.2 1.4 2 .3.8.6 1.7.5 2.9-1.2.1-2.1-.2-2.9-.5-.8-.3-1.5-.8-2-1.4-.6-.6-1-1.2-1.4-2-.4-.8-.6-1.7-.5-2.9z"/>
  <path class="st2" d="M139.9 197.8v9.6"/>
  <path d="M139.9 197.8c.9.8 1.4 1.6 1.7 2.4.3.8.5 1.6.5 2.4 0 .8-.1 1.6-.5 2.4-.3.8-.8 1.6-1.7 2.4-.9-.8-1.4-1.6-1.7-2.4-.3-.8-.5-1.6-.5-2.4 0-.8.1-1.6.5-2.4.4-.8.8-1.6 1.7-2.4z"/>
  <path class="st2" d="M110.6 185.6l-6.7 6.8"/>
  <path d="M110.6 185.6c.1 1.2-.2 2.1-.5 2.9-.3.8-.8 1.5-1.4 2-.6.6-1.2 1-2 1.4-.8.3-1.7.6-2.9.5-.1-1.2.2-2.1.5-2.9.3-.8.8-1.5 1.4-2 .6-.6 1.2-1 2-1.4.8-.3 1.7-.6 2.9-.5z"/>
  <path class="st2" d="M98.5 156.3H89"/>
  <path d="M98.5 156.3c-.8.9-1.6 1.4-2.4 1.7s-1.6.5-2.4.5-1.6-.1-2.4-.5c-.8-.3-1.6-.8-2.4-1.7.8-.9 1.6-1.4 2.4-1.7s1.6-.5 2.4-.5 1.6.1 2.4.5c.8.3 1.6.8 2.4 1.7z"/>
  <path class="st2" d="M110.7 127l-6.7-6.8"/>
  <path d="M110.7 127c-1.2.1-2.1-.2-2.9-.5s-1.5-.8-2-1.4c-.6-.6-1-1.2-1.4-2-.3-.8-.6-1.7-.5-2.9 1.2-.1 2.1.2 2.9.5s1.5.8 2 1.4c.6.6 1 1.2 1.4 2 .3.8.6 1.7.5 2.9z"/>
  <path class="st2" d="M178.8 141.6l8.9-3.4"/>
  <path d="M178.8 141.6c.4-1.1 1-1.8 1.6-2.4.6-.6 1.3-1 2.1-1.3.7-.3 1.5-.4 2.4-.4s1.8.2 2.8.7c-.4 1.1-1 1.9-1.6 2.5s-1.3 1-2.1 1.3c-.7.3-1.5.4-2.4.4-.9-.1-1.8-.3-2.8-.8z"/>
  <path class="st2" d="M177.8 173.3l8.8 3.9"/>
  <path d="M177.8 173.3c1.1-.5 2-.6 2.9-.6s1.6.2 2.4.5c.7.3 1.4.8 2 1.4.6.6 1.1 1.4 1.5 2.5-1.1.5-2 .6-2.9.6s-1.6-.2-2.4-.5c-.7-.3-1.4-.8-2-1.4-.6-.6-1.1-1.3-1.5-2.5z"/>
  <path class="st2" d="M154.8 195.1l3.4 8.9"/>
  <path d="M154.8 195.1c1.1.4 1.8 1 2.4 1.6.6.6 1 1.3 1.3 2.1.3.7.4 1.5.4 2.4s-.2 1.8-.7 2.8c-1.1-.4-1.9-1-2.5-1.6s-1-1.3-1.3-2.1c-.3-.7-.4-1.5-.4-2.4 0-.8.2-1.7.8-2.8z"/>
  <g>
    <path class="st2" d="M123 194.2l-3.9 8.7"/>
    <path d="M123 194.2c.5 1.1.6 2 .6 2.9s-.2 1.6-.5 2.4c-.3.7-.8 1.4-1.4 2s-1.4 1.1-2.5 1.5c-.5-1.1-.6-2-.6-2.9s.2-1.6.5-2.4c.3-.7.8-1.4 1.4-2 .6-.6 1.4-1.2 2.5-1.5z"/>
  </g>
  <g>
    <path class="st2" d="M101.2 171.1l-8.9 3.4"/>
    <path d="M101.2 171.1c-.4 1.1-1 1.8-1.6 2.4-.6.6-1.3 1-2.1 1.3-.7.3-1.5.4-2.4.4s-1.8-.2-2.8-.7c.4-1.1 1-1.9 1.6-2.5s1.3-1 2.1-1.3c.7-.3 1.5-.4 2.4-.4.8.1 1.8.2 2.8.8z"/>
  </g>
  <g>
    <path class="st2" d="M102.1 139.4l-8.7-3.9"/>
    <path d="M102.1 139.4c-1.1.5-2 .6-2.9.6s-1.6-.2-2.4-.5c-.7-.3-1.4-.8-2-1.4-.6-.6-1.1-1.4-1.5-2.5 1.1-.5 2-.6 2.9-.6s1.6.2 2.4.5c.7.3 1.4.8 2 1.4.6.6 1.2 1.3 1.5 2.5z"/>
  </g>
  <g>
    <path class="st2" d="M125.2 117.6l-3.4-8.9"/>
    <path d="M125.2 117.6c-1.1-.4-1.8-1-2.4-1.6s-1-1.3-1.3-2.1c-.3-.7-.4-1.5-.4-2.4s.2-1.8.7-2.8c1.1.4 1.9 1 2.5 1.6s1 1.3 1.3 2.1c.3.7.4 1.5.4 2.4-.1.8-.2 1.7-.8 2.8z"/>
  </g>
  <g>
    <path class="st2" d="M157 118.5l3.9-8.7"/>
    <path d="M157 118.5c-.5-1.1-.6-2-.6-2.9s.2-1.6.5-2.4c.3-.7.8-1.4 1.4-2 .6-.6 1.4-1.1 2.5-1.5.5 1.1.6 2 .6 2.9s-.2 1.6-.5 2.4c-.3.7-.8 1.4-1.4 2-.6.6-1.4 1.1-2.5 1.5z"/>
  </g>
  <g>
    <path d="M147.1 71.1c-.6.9-1.2 1.7-1.8 2.5s-1.2 1.6-1.9 2.4c-1.3 1.6-2.6 3.1-4 4.6l-.9-2.2c1.3-.1 2.5-.1 3.8-.1h3.8l3.4.1-2.4 2.3c-1.7 1.6-3.4 3.2-5.2 4.7-.9.7-1.8 1.5-2.8 2.2-.9.7-1.9 1.4-2.9 2.1.6-1 1.3-2 2.1-2.9.7-.9 1.4-1.9 2.2-2.8 1.5-1.8 3.1-3.5 4.7-5.2l1 2.4h-3.8c-1.3 0-2.5 0-3.8-.1l-3.2-.1 2.3-2.1c1.5-1.4 3-2.7 4.6-4 .8-.6 1.6-1.3 2.4-1.9.7-.7 1.5-1.3 2.4-1.9z"/>
  </g>
  <g>
    <path d="M201.4 95.8c-.7.8-1.4 1.5-2.2 2.2-.7.7-1.5 1.4-2.3 2-1.5 1.3-3.1 2.6-4.7 3.8l-.5-2.4c1.2.2 2.5.4 3.7.6s2.5.4 3.7.7l3.3.7-2.7 1.8c-1.9 1.3-3.9 2.5-6 3.7-1 .6-2 1.1-3.1 1.7-1 .5-2.1 1-3.2 1.5.8-.9 1.7-1.7 2.5-2.5.9-.8 1.8-1.6 2.6-2.3 1.8-1.5 3.6-2.9 5.5-4.3l.5 2.5c-1.2-.2-2.5-.4-3.7-.6s-2.5-.5-3.7-.8l-3.1-.7 2.6-1.7c1.7-1.1 3.4-2.1 5.2-3.1.9-.5 1.8-1 2.7-1.4 1-.5 1.9-1 2.9-1.4z"/>
  </g>
  <g>
    <path d="M225.9 158.3c-1-.1-2-.3-3-.5l-3-.6c-2-.4-3.9-.9-5.9-1.5l1.6-1.8 1.8 3.3c.6 1.1 1.1 2.2 1.7 3.4l1.4 3-3.1-1.1c-2.2-.8-4.4-1.6-6.5-2.6-1.1-.5-2.1-.9-3.2-1.5-1.1-.5-2.1-1.1-3.1-1.7 1.2.1 2.4.3 3.5.5 1.2.2 2.3.5 3.4.7 2.3.5 4.5 1.1 6.8 1.8l-1.7 1.9c-.6-1.1-1.2-2.2-1.7-3.3-.6-1.1-1.1-2.3-1.6-3.4L212 152l2.9 1.1c1.9.7 3.8 1.5 5.6 2.3.9.4 1.8.9 2.8 1.3.8.6 1.8 1 2.6 1.6z"/>
  </g>
  <g>
    <path d="M199.3 218.1c-.7-.8-1.3-1.6-1.9-2.4-.6-.8-1.2-1.7-1.8-2.5-1.1-1.7-2.2-3.4-3.2-5.1l2.4-.2c-.3 1.2-.6 2.4-1 3.6-.3 1.2-.7 2.4-1.1 3.6l-1 3.2-1.5-2.9c-1.1-2.1-2.1-4.2-3-6.4-.5-1.1-.9-2.2-1.3-3.3-.4-1.1-.8-2.2-1.1-3.4.8.9 1.5 1.8 2.2 2.8.7.9 1.4 1.9 2 2.9 1.3 2 2.5 4 3.6 6l-2.5.3c.3-1.2.7-2.4 1.1-3.6l1.2-3.6 1.1-3 1.4 2.8c.9 1.8 1.7 3.7 2.5 5.5.4.9.8 1.9 1.1 2.8.2.9.5 1.9.8 2.9z"/>
  </g>
  <g>
    <path d="M133 240.6c.6-.9 1.2-1.7 1.8-2.5s1.2-1.6 1.9-2.4c1.3-1.6 2.6-3.1 4-4.6l.9 2.2c-1.3.1-2.5.1-3.8.1H134l-3.4-.1 2.4-2.3c1.7-1.6 3.4-3.2 5.2-4.7.9-.7 1.8-1.5 2.8-2.2.9-.7 1.9-1.4 2.9-2.1-.6 1-1.3 2-2.1 2.9-.7.9-1.4 1.9-2.2 2.8-1.5 1.8-3.1 3.5-4.7 5.2l-1-2.4h3.8c1.3 0 2.5 0 3.8.1l3.2.1-2.3 2.1c-1.5 1.4-3 2.7-4.6 4-.8.6-1.6 1.3-2.4 1.9-.7.8-1.5 1.4-2.4 1.9z"/>
  </g>
  <g>
    <path d="M76.6 213.7c.9-.5 1.8-1 2.7-1.4.9-.4 1.8-.9 2.8-1.3 1.9-.8 3.7-1.6 5.6-2.3l-.2 2.4c-1.1-.5-2.3-1.1-3.4-1.6-1.1-.6-2.2-1.1-3.3-1.7l-3-1.6 3.2-.9c2.2-.7 4.5-1.3 6.8-1.8 1.1-.3 2.3-.5 3.5-.7s2.3-.4 3.5-.5c-1 .6-2.1 1.1-3.1 1.6-1.1.5-2.1 1-3.2 1.5-2.2.9-4.3 1.8-6.5 2.5l.2-2.5c1.1.5 2.3 1.1 3.4 1.7l3.3 1.8 2.8 1.6-3 .8c-1.9.5-3.9 1-5.9 1.5l-3 .6c-1.2.1-2.2.2-3.2.3z"/>
  </g>
  <g>
    <path d="M54.2 154.7c1 0 2.1 0 3.1.1s2 .1 3 .2c2 .2 4 .5 6 .8l-1.4 2c-.7-1-1.5-2-2.2-3.1-.7-1-1.4-2.1-2.1-3.1l-1.8-2.8 3.2.7c2.3.5 4.5 1.1 6.8 1.8 1.1.3 2.2.7 3.4 1.1 1.1.4 2.2.8 3.3 1.3-1.2 0-2.4 0-3.6-.1s-2.3-.2-3.5-.3c-2.3-.3-4.6-.6-6.9-1l1.4-2.1c.7 1 1.4 2.1 2.1 3.1s1.4 2.1 2 3.2l1.7 2.8-3-.7c-2-.5-3.9-1-5.9-1.6-1-.3-1.9-.6-2.9-1-.8-.5-1.7-.9-2.7-1.3z"/>
  </g>
  <g>
    <path d="M80.5 94c.7.8 1.4 1.5 2 2.3s1.3 1.6 1.9 2.4c1.2 1.6 2.4 3.3 3.5 5l-2.4.4c.3-1.2.5-2.5.8-3.7l.9-3.6.9-3.2 1.6 2.9c1.2 2 2.2 4.1 3.3 6.2.5 1.1 1 2.1 1.5 3.2s.9 2.2 1.3 3.3c-.8-.9-1.6-1.8-2.3-2.7-.7-.9-1.4-1.9-2.1-2.8-1.4-1.9-2.7-3.8-3.9-5.8l2.5-.4c-.3 1.2-.6 2.4-.9 3.7-.3 1.2-.6 2.4-1 3.6l-.9 3.1-1.5-2.7c-1-1.8-1.9-3.6-2.7-5.4-.4-.9-.8-1.9-1.2-2.8-.6-1.1-1-2-1.3-3z"/>
  </g>
  <g>
    <path class="st0" d="M69.1 54.6h-5.8c-.4 0-1 0-1.7.1h-.3v-.5h.2c1.1-.1 1.4-.4 1.4-1.3V42.5c0-.9-.4-1.2-1.4-1.3h-.2v-.5h.3c.8.1 1.3.1 1.7.1 0 0 5-.1 5.8-.1 4 0 7.2 2.7 7.2 6.7 0 3.9-3.1 7.2-7.2 7.2zm-.9-12.4c-.4 0-2.7.1-2.7.1v9c0 1.3.4 1.7 2.7 1.7 2.9 0 5-2.6 5-5.5 0-3.2-2.2-5.3-5-5.3zM85.1 54.7c-.8-.1-1.3-.1-1.7-.1h-2c-.4 0-1 0-1.7.1h-.3v-.5h.2c1.1-.1 1.4-.4 1.4-1.3V42.5c0-.9-.4-1.2-1.4-1.3h-.2v-.5h.3c.8.1 1.3.1 1.7.1h2c.4 0 1 0 1.7-.1h.3v.5h-.2c-1.1.1-1.4.4-1.4 1.3v10.4c0 .9.4 1.2 1.4 1.3h.2v.5h-.3zm-2.5-15.1h-.3c-.3-.8-.8-1.3-1.6-1.6v-.3c.8-.3 1.3-.8 1.6-1.6h.3c.3.8.8 1.3 1.6 1.6v.3c-.8.3-1.3.8-1.6 1.6zM93.6 54.9c-1.8 0-3.2-.6-3.9-.8l-.6-3.5h.6c.5 2.2 1.6 3.2 3.4 3.2 1.6 0 2.7-.8 2.7-2.2 0-1.3-.9-2.2-3.3-3.4-1.8-1-3.1-2.5-3.1-4.1 0-2.2 1.7-3.6 4.3-3.6 1.6 0 2.5.6 3.9.6L98 44h-.4c-.8-2-2.1-2.3-3.3-2.3-1.3 0-2.1.8-2.1 1.9 0 1 1.3 1.8 2.7 2.6 2.4 1.3 4 2.6 4 4.9-.1 1.9-2.3 3.8-5.3 3.8zM115.1 53.8c-.8.6-3.3 1.1-4.9 1.1-4.4 0-8-2.8-8-7 0-4 3.4-7.5 8-7.5 2.9 0 4 1.3 4.8.8l.2 3.3h-.4c-.4-1.9-2.1-2.6-4.2-2.6-3 0-5.1 2.8-5 6 .2 3.4 2.6 5.6 5.5 5.6 2.1 0 3.7-.6 3.9-3.1h.5l-.4 3.4zM124.5 54.7c-.8-.1-1.3-.1-1.7-.1h-2c-.4 0-1 0-1.7.1h-.3v-.5h.2c1.1-.1 1.4-.4 1.4-1.3V42.5c0-.9-.4-1.2-1.4-1.3h-.2v-.5h.3c.8.1 1.3.1 1.7.1h2c.4 0 1 0 1.7-.1h.3v.5h-.2c-1.1.1-1.4.4-1.4 1.3v10.4c0 .9.4 1.2 1.4 1.3h.2v.5h-.3zm-2.6-15.1h-.3c-.3-.8-.8-1.3-1.6-1.6v-.3c.8-.3 1.3-.8 1.6-1.6h.3c.3.8.8 1.3 1.6 1.6v.3c-.7.3-1.2.8-1.6 1.6zM134 48.7h-1.1V53c0 .9.4 1.2 1.4 1.3h.2v.5h-.3c-.8-.1-1.3-.1-1.7-.1h-2c-.4 0-1 0-1.7.1h-.3v-.5h.2c1.1-.1 1.4-.4 1.4-1.3V42.5c0-.9-.4-1.2-1.4-1.3h-.2v-.5h.3c.8.1 1.2.1 1.7.1.6 0 3.3-.1 4.4-.1 3.1 0 4.7 1.6 4.7 3.5.1 2.6-2.6 4.5-5.6 4.5zm.1-6.8c-.9 0-1.1.1-1.1.9v4.9h.6c1.8 0 3.5-1.1 3.5-3 0-1.4-.9-2.8-3-2.8zM152.7 54.7s-4.4-.2-6.2-.2h-2c-.4 0-1 0-1.7.1h-.3v-.5h.2c1.1-.1 1.4-.4 1.4-1.3V42.5c0-.9-.4-1.2-1.4-1.3h-.2v-.5h.3c.8.1 1.3.1 1.7.1h2c.4 0 1 0 1.7-.1h.3v.5h-.2c-1.1.1-1.4.4-1.4 1.3v9.1c0 1.2.1 1.3 1.1 1.3h2.1c1.6 0 1.9-.1 3-1.5l.7-.9h.6c-1.2 1.5-1.5 3.4-1.7 4.2zM166.8 54.7s-2.1-.1-3.5-.1h-4.6c-.4 0-1 0-1.7.1h-.3v-.5h.2c1.1-.1 1.4-.4 1.4-1.3V42.5c0-.9-.4-1.2-1.4-1.3h-.2v-.5h.3c.8.1 1.3.1 1.7.1h8l.4 3.3h-.5c-.4-1.5-.6-1.6-1.9-1.6H161v3.8h5v1.5h-5v3.9c0 1.2.1 1.3 1.1 1.3h2.2c1.6 0 2-.4 2.9-1.8h.6c-.8 1.3-.7 2.7-1 3.5zM175.5 54.9c-1.8 0-3.2-.6-3.9-.8l-.6-3.5h.6c.5 2.2 1.6 3.2 3.4 3.2 1.6 0 2.7-.8 2.7-2.2 0-1.3-.9-2.2-3.3-3.4-1.8-1-3.1-2.5-3.1-4.1 0-2.2 1.7-3.6 4.3-3.6 1.6 0 2.5.6 3.9.6l.4 2.9h-.4c-.8-2-2.1-2.3-3.3-2.3-1.3 0-2.1.8-2.1 1.9 0 1 1.3 1.8 2.7 2.6 2.4 1.3 4 2.6 4 4.9-.2 1.9-2.3 3.8-5.3 3.8zM198.2 54.9c-4.4 0-8-2.8-8-7 0-4 3.4-7.5 8-7.5 4.4 0 8 2.8 8 7 0 4.1-3.3 7.5-8 7.5zm-.5-12.8c-2.9 0-4.7 2.5-4.4 5.5.3 3.1 2.4 5.5 5.4 5.5 2.9 0 4.7-2.5 4.4-5.5-.2-3-2.3-5.5-5.4-5.5zM219.1 44.1c-.4-1.7-.6-1.6-2.5-1.6h-3.1v3.8h5v1.5h-5v5.1c0 .9.4 1.2 1.4 1.3h.2v.5h-.3c-.8-.1-1.3-.1-1.7-.1h-2c-.4 0-1 0-1.7.1h-.3v-.5h.2c1.1-.1 1.4-.4 1.4-1.3V42.5c0-.9-.4-1.2-1.4-1.3h-.2v-.5h.3c.8.1 1.3.1 1.7.1h8l.4 3.3h-.4z"/>
  </g>
  <g>
    <path class="st0" d="M68.2 275.4c-4.4 0-7.9-2.8-7.9-7 0-4 3.3-7.4 7.9-7.4 4.4 0 7.9 2.8 7.9 7 0 4-3.3 7.4-7.9 7.4zm-.5-12.7c-2.8 0-4.6 2.5-4.3 5.5s2.3 5.5 5.4 5.5c2.8 0 4.6-2.5 4.3-5.5s-2.4-5.5-5.4-5.5zM98.5 275.2c-.8-.1-1.3-.1-1.7-.1h-1.9c-.4 0-.9 0-1.7.1h-.3v-.5h.2c1.1-.1 1.4-.4 1.4-1.3v-9.6l-4.3 1.3v8.3c0 .9.4 1.2 1.4 1.3h.2v.5h-.3c-.8-.1-1.3-.1-1.7-.1h-1.9c-.4 0-.9 0-1.7.1h-.3v-.5h.2c1.1-.1 1.4-.4 1.4-1.3v-8.3l-4.3-1.3v9.6c0 .9.4 1.2 1.4 1.3h.2v.5h-.3c-.8-.1-1.3-.1-1.7-.1H81c-.4 0-.9 0-1.7.1H79v-.5h.2c1.1-.1 1.4-.4 1.4-1.3v-10.3c0-.9-.4-1.2-1.4-1.3H79v-.5h.3c.8.1 2.5.1 4.3.7l5.3 1.6 5.3-1.6c1.8-.6 3.5-.6 4.3-.7h.3v.5h-.2c-1.1.1-1.4.4-1.4 1.3v10.3c0 .9.4 1.2 1.4 1.3h.2v.5h-.3zM116.6 275.2c-.8-.1-1.3-.1-1.7-.1H113c-.4 0-.9 0-1.7.1h-.3v-.5h.2c1.1-.1 1.4-.4 1.4-1.3v-10.1h-5.9v10.1c0 .9.4 1.2 1.4 1.3h.2v.5h-.3c-.8-.1-1.3-.1-1.7-.1h-1.9c-.4 0-.9 0-1.7.1h-.3v-.5h.2c1.1-.1 1.4-.4 1.4-1.3v-10.3c0-.9-.4-1.2-1.4-1.3h-.2v-.5h.3c.8.1 1.3.1 1.7.1h10.5c.4 0 .9 0 1.7-.1h.3v.5h-.2c-1.1.1-1.4.4-1.4 1.3v10.3c0 .9.4 1.2 1.4 1.3h.2v.5h-.3zM125.6 275.2c-.8-.1-1.3-.1-1.7-.1H122c-.4 0-.9 0-1.7.1h-.3v-.5h.2c1.1-.1 1.4-.4 1.4-1.3v-10.3c0-.9-.4-1.2-1.4-1.3h-.2v-.5h.3c.8.1 1.3.1 1.7.1h1.9c.4 0 .9 0 1.7-.1h.3v.5h-.2c-1.1.1-1.4.4-1.4 1.3v10.3c0 .9.4 1.2 1.4 1.3h.2v.5h-.3zm-2.6-15h-.3c-.3-.8-.8-1.3-1.6-1.6v-.3c.8-.3 1.3-.8 1.6-1.6h.3c.3.8.8 1.3 1.6 1.6v.3c-.7.3-1.2.8-1.6 1.6zM135 269.2h-1.1v4.2c0 .9.4 1.2 1.4 1.3h.2v.5h-.3c-.8-.1-1.3-.1-1.7-.1h-1.9c-.4 0-.9 0-1.7.1h-.3v-.5h.2c1.1-.1 1.4-.4 1.4-1.3v-10.3c0-.9-.4-1.2-1.4-1.3h-.2v-.5h.3c.8.1 1.1.1 1.7.1.6 0 3.2-.1 4.3-.1 3 0 4.6 1.5 4.6 3.4.1 2.7-2.5 4.5-5.5 4.5zm.1-6.7c-.9 0-1.1.1-1.1.9v4.9h.6c1.8 0 3.5-1.1 3.5-3-.1-1.4-.9-2.8-3-2.8zM151.7 275.4c-4.4 0-7.9-2.8-7.9-7 0-4 3.3-7.4 7.9-7.4 4.4 0 7.9 2.8 7.9 7 .1 4-3.3 7.4-7.9 7.4zm-.5-12.7c-2.8 0-4.6 2.5-4.3 5.5s2.3 5.5 5.4 5.5c2.8 0 4.6-2.5 4.3-5.5-.3-3-2.4-5.5-5.4-5.5zM173.7 264.1h-.4c.2-.7 0-1-.9-1h-3v10.3c0 .9.4 1.2 1.4 1.3h.2v.5h-.3c-.8-.1-1.3-.1-1.7-.1h-2c-.4 0-.9 0-1.7.1h-.3v-.5h.2c1.1-.1 1.4-.4 1.4-1.3V263h-3.3c-.8 0-1.2.1-1.8 1.4h-.5l1.2-4.1h.4c-.2.7 0 1 .9 1h3v-2.2c0-.9-.4-1.2-1.4-1.3h-.2v-.5h.3c.8.1 1.3.1 1.7.1h1.9c.4 0 .9 0 1.7-.1h.3v.5h-.2c-1.1.1-1.4.4-1.4 1.3v2.2h3.3c.8 0 1.2-.1 1.8-1.4h.4l-1 4.2zM187.1 275.2s-2.1-.1-3.4-.1h-4.5c-.4 0-.9 0-1.7.1h-.3v-.5h.2c1.1-.1 1.4-.4 1.4-1.3v-10.3c0-.9-.4-1.2-1.4-1.3h-.2v-.5h.3c.8.1 1.3.1 1.7.1h7.9l.4 3.3h-.5c-.4-1.5-.6-1.6-1.9-1.6h-3.7v3.8h5v1.5h-5v3.9c0 1.2.1 1.3 1.1 1.3h2.1c1.6 0 2-.4 2.8-1.8h.6c-.7 1.2-.7 2.5-.9 3.4zM205.6 275.2c-.8-.1-1.3-.1-1.7-.1H202c-.4 0-.9 0-1.7.1h-.3v-.5h.2c1.1-.1 1.4-.4 1.4-1.3v-10.1h-5.9v10.1c0 .9.4 1.2 1.4 1.3h.2v.5h-.3c-.8-.1-1.3-.1-1.7-.1h-1.9c-.4 0-.9 0-1.7.1h-.3v-.5h.2c1.1-.1 1.4-.4 1.4-1.3v-10.3c0-.9-.4-1.2-1.4-1.3h-.2v-.5h.3c.8.1 1.3.1 1.7.1h10.5c.4 0 .9 0 1.7-.1h.3v.5h-.2c-1.1.1-1.4.4-1.4 1.3v10.3c0 .9.4 1.2 1.4 1.3h.2v.5h-.3zM219.9 264.1h-.4c.2-.7 0-1-.9-1h-3v10.3c0 .9.4 1.2 1.4 1.3h.2v.5h-.3c-.8-.1-1.3-.1-1.7-.1h-1.9c-.4 0-.9 0-1.7.1h-.3v-.5h.2c1.1-.1 1.4-.4 1.4-1.3V263h-3.3c-.8 0-1.2.1-1.8 1.4h-.4l1.2-4.1h.4c-.2.7 0 1 .9 1h3v-2.2c0-.9-.4-1.2-1.4-1.3h-.2v-.5h.3c.8.1 1.3.1 1.7.1h1.9c.4 0 .9 0 1.7-.1h.3v.5h-.2c-1.1.1-1.4.4-1.4 1.3v2.2h3.3c.8 0 1.2-.1 1.8-1.4h.4l-1.2 4.2zM102.5 299.6c-.8-.1-1.3-.1-1.7-.1h-2c-.4 0-1 0-1.7.1h-.3v-.5h.2c1.1-.1 1.5-.4 1.5-1.3v-9.7l-4.4 1.3v8.3c0 .9.4 1.2 1.5 1.3h.2v.5h-.3c-.8-.1-1.3-.1-1.7-.1h-2c-.4 0-1 0-1.7.1h-.3v-.5h.2c1.1-.1 1.5-.4 1.5-1.3v-8.3l-4.4-1.3v9.7c0 .9.4 1.2 1.5 1.3h.2v.5h-.3c-.8-.1-1.3-.1-1.7-.1h-2c-.4 0-1 0-1.7.1h-.3v-.5h.2c1.1-.1 1.5-.4 1.5-1.3v-10.4c0-.9-.4-1.2-1.5-1.3h-.2v-.5h.3c.8.1 2.5.1 4.3.7l5.4 1.7 5.4-1.7c1.8-.6 3.5-.6 4.3-.7h.3v.5h-.2c-1.1.1-1.5.4-1.5 1.3v10.4c0 .9.4 1.2 1.5 1.3h.2v.5h-.3zM120.7 299.6c-.8-.1-1.3-.1-1.7-.1h-2.2c-.4 0-1 0-1.7.1h-.3v-.5h.2c1.1-.1 1.5-.4 1.5-1.3v-.1-2.3h-6.1v2.4c0 .9.4 1.2 1.5 1.3h.2v.5h-.3c-.8-.1-1.3-.1-1.7-.1h-2.2c-.4 0-1 0-1.7.1h-.3v-.5h.2c1.1-.1 1.4-.4 1.4-1.3v-.2c0-5.4 1.9-10.2 5.9-12.6 4 2.4 5.9 7.2 5.9 12.6v.2c0 .9.4 1.2 1.5 1.3h.2v.5h-.3zm-7.4-13c-1.6 1.2-2.6 3.1-3 7.7h5.9c-.2-4.7-1.3-6.5-2.9-7.7zM131.8 299.5H126c-.4 0-1 0-1.7.1h-.3v-.5h.2c1.1-.1 1.5-.4 1.5-1.3v-10.4c0-.9-.4-1.2-1.5-1.3h-.2v-.5h.3c.8.1 1.3.1 1.7.1 0 0 5-.1 5.8-.1 4 0 7.2 2.7 7.2 6.8 0 3.7-3 7.1-7.2 7.1zm-.9-12.4c-.4 0-2.7.1-2.7.1v9c0 1.3.4 1.7 2.7 1.7 2.9 0 5-2.6 5-5.6 0-3.2-2.2-5.2-5-5.2zM156.3 299.6c-.8-.1-1.3-.1-1.7-.1h-2c-.4 0-1 0-1.7.1h-.3v-.5h.2c1.1-.1 1.4-.4 1.4-1.3v-10.2h-6v10.2c0 .9.4 1.2 1.4 1.3h.2v.5h-.3c-.8-.1-1.3-.1-1.7-.1h-2c-.4 0-1 0-1.7.1h-.3v-.5h.2c1.1-.1 1.5-.4 1.5-1.3v-10.4c0-.9-.4-1.2-1.5-1.3h-.2v-.5h.3c.8.1 1.3.1 1.7.1h10.6c.4 0 1 0 1.7-.1h.3v.5h-.2c-1.1.1-1.5.4-1.5 1.3v10.4c0 .9.4 1.2 1.5 1.3h.2v.5h-.1zM169.5 299.6s-2.1-.1-3.5-.1h-4.6c-.4 0-1 0-1.7.1h-.3v-.5h.2c1.1-.1 1.4-.4 1.4-1.3v-10.4c0-.9-.4-1.2-1.4-1.3h-.2v-.5h.3c.8.1 1.3.1 1.7.1h8l.4 3.3h-.5c-.4-1.5-.6-1.6-1.9-1.6h-3.7v3.8h5v1.5h-5v3.9c0 1.2.1 1.3 1.1 1.3h2.2c1.7 0 2-.4 2.9-1.8h.6c-.8 1.3-.8 2.6-1 3.5zM178.1 299.8c-1.8 0-3.2-.6-3.9-.8l-.6-3.5h.6c.5 2.2 1.6 3.2 3.4 3.2 1.6 0 2.7-.8 2.7-2.2 0-1.3-.9-2.2-3.3-3.4-1.8-1-3.1-2.5-3.1-4.1 0-2.3 1.7-3.6 4.3-3.6 1.7 0 2.5.6 3.9.6l.4 2.9h-.4c-.8-2-2.1-2.3-3.3-2.3-1.3 0-2.1.8-2.1 1.9 0 1 1.3 1.8 2.7 2.6 2.4 1.3 4 2.6 4 5-.1 1.7-2.2 3.7-5.3 3.7zM191.1 299.8c-1.8 0-3.2-.6-3.9-.8l-.6-3.5h.6c.5 2.2 1.6 3.2 3.4 3.2 1.6 0 2.7-.8 2.7-2.2 0-1.3-.9-2.2-3.3-3.4-1.8-1-3.1-2.5-3.1-4.1 0-2.3 1.7-3.6 4.3-3.6 1.7 0 2.5.6 3.9.6l.4 2.9h-.4c-.8-2-2.1-2.3-3.3-2.3-1.3 0-2.1.8-2.1 1.9 0 1 1.3 1.8 2.7 2.6 2.4 1.3 4 2.6 4 5-.2 1.7-2.3 3.7-5.3 3.7z"/>
  </g>
  <g>
    <path d="M52.1 10.6h175.5v9.3H52.1z"/>
  </g>
  <path class="st0" d="M123 125.5c-6.4 0-11.5 5.1-11.5 11.5s5.1 11.5 11.5 11.5 11.5-5.1 11.5-11.5-5.1-11.5-11.5-11.5zm0 16.8c-4.4 0-7.9-3.5-7.9-7.9s3.5-7.9 7.9-7.9 7.9 3.5 7.9 7.9-3.5 7.9-7.9 7.9z"/>
</svg>